<svg enable-background="new 0 0 110 110" height="512" viewBox="0 0 110 110" width="512" xmlns="http://www.w3.org/2000/svg"><path d="m86.1899948 34.2732277v58.9699745l-16.0500488 6.7299805-46.3299523-3.3698731v-62.3300819l8.0299683-11.2299805v-13.0200186h46.3300133v13.0200186z" fill="#ededed"/><path d="m86.1900101 93.2391129-16.0491181 6.7376556v-65.7045021l8.024559-11.2294369 8.0245591 11.2294369z" fill="#b1b2b6"/><path d="m78.165451 23.0428295h-46.3303318l-8.0245609 11.2294369h46.3303337z" fill="#dbd8dd"/><path d="m31.835119 10.025641h46.33033v13.017188h-46.33033z" fill="#ededed"/><path d="m64.5470047 34.2722282v-.0369415h-7.1427231v.0369415h-5.8593369v-.0369415h-7.5366211-6.7325897-6.7325897v.0369415h-6.7325897v18.2300835c0 1.8228645 1.3649559 3.4566956 3.1853523 3.5519676 1.9413681.1016426 3.5472374-1.442337 3.5472374-3.3614998v-5.7664604c0-1.8591919 1.5071754-3.3662987 3.3662949-3.3662987 1.8591232 0 3.3662949 1.5071068 3.3662949 3.3662987v.600193c0 1.8228645 1.3649559 3.4566994 3.1853523 3.5519676 1.9413681.1016464 3.5472374-1.4423332 3.5472374-3.361496v-5.7010765c0-1.5056 1.2204742-2.7260742 2.7260742-2.7260742 1.5055962 0 2.7260704 1.2204742 2.7260704 2.7260742v11.9558792c0 2.3272438 1.7014809 4.4054871 4.0182381 4.6263885 2.6576691.2534561 4.8935509-1.8296509 4.8935509-4.4349556v-1.6609077c0-1.324585 1.0738029-2.3983192 2.3983879-2.3983192h.2392693c1.324585 0 2.3983879 1.0737343 2.3983879 2.3983192 0 1.8228645 1.3649521 3.4566956 3.1853485 3.5519676 1.9413681.1016426 3.5472412-1.442337 3.5472412-3.3614998v-18.4205512z" fill="#4288b9"/><path d="m67.1260834 78.3515396c-1.6924057-.1278687-3.0643921 1.1366653-3.0643921 2.8243942v5.2566299c0 1.7753906-1.4432411 3.1056976-3.2236366 2.9711685-1.7803955-.1345215-3.2236366-1.6829224-3.2236366-3.4583054v-1.1600037c0-2.1492004-1.7471199-4.0235062-3.9022713-4.186348l-.0000954-.0000076c-2.1551514-.1628342-3.9022751 1.4474564-3.9022751 3.5966568v3.341423c0 2.0964584-1.7042313 3.6672211-3.8063965 3.5083847l-.0000954-.0000076c-2.1021614-.1588364-3.8063965-1.9871292-3.8063965-4.0835876v-7.4380493c0-1.6877365-1.3719826-3.1595993-3.0643883-3.287468-1.6924057-.1278763-3.0643883 1.1366577-3.0643883 2.8243866v2.4059296c0 1.6877289-1.3719826 2.9522629-3.0643883 2.8243866-1.6924038-.1278687-3.0643883-1.5997314-3.0643883-3.287468v-.8347015c0-1.6877365-1.3719826-3.1595993-3.0643883-3.287468-1.6924038-.1278763-3.0643883 1.1366577-3.0643883 2.8243866v16.9020691l46.3303337 3.3688278.0495758-18.3377533c.0000002-1.6877363-1.3719785-3.1595991-3.0643842-3.2874754z" fill="#4288b9"/><g fill="#344d5b"><path d="m73.3775101 94.0341263-.8497086.3607788v-11.0763855l.8497086-.3607788z"/><path d="m76.9469452 92.5185547-.4248505.1803894v-11.0763855l.4248505-.180397z"/><path d="m75.7008362 93.0476456-1.4727326.6253204v-11.0763931l1.4727326-.6253128z"/><path d="m78.6179123 91.8090668-.8497009.3607788v-11.0763855l.8497009-.3607865z"/><path d="m82.187355 90.2934875-.4248504.1803971v-11.0763931l.4248504-.1803894z"/><path d="m80.941246 90.8225861-1.4727325.6253128v-11.0763855l1.4727325-.6253128z"/><path d="m83.8535461 89.5860291-1.0258026.4355545v-11.0763855l1.0258026-.4355545z"/></g><g fill="#293b44"><path d="m34.2813454 69.4758453v-8.1325645l1.6178474.0938759 1.9225769 5.8698196c.1772957.5465393.3065758.955307.3878403 1.2262955.0923424-.2905045.2363968-.7166977.4321632-1.2785721l1.9447403-5.5455589 1.4460869.0839119v8.1325684l-1.036087-.0601196v-6.8067285l-2.3602829 6.6697731-.9695969-.0562668-2.3492012-7.0595322v6.9232178z"/><path d="m43.9496346 70.0368576v-8.1325684l1.0748711.0623703v8.1325684z"/><path d="m46.8750572 70.206604v-8.1325645l1.0748711.0623703v7.1728554l4.0002899.2321167v.9597092z"/><path d="m53.1857643 70.5727844v-8.1325645l1.0748672.0623703v4.0330009l4.033535-3.798954 1.4571686.0845528-3.4074478 3.0974731 3.557045 5.0437775-1.4183846-.0823059-2.8921776-4.2840271-1.3297386 1.2209396v2.8181076z"/></g></svg>