<svg enable-background="new 0 0 110 110" height="512" viewBox="0 0 110 110" width="512" xmlns="http://www.w3.org/2000/svg"><path d="m64.7002563 15.0312967c-.3930359-.4160471-.9915276-.5512238-1.5370979-.3776512-10.3073044 3.2773619-9.9528618 20.4076385-9.9528618 20.4076385l4.006958 1.3773994c-1.6481476-13.0936661 3.9347649-17.6170654 7.054863-19.1028175.8906708-.4239396 1.1055374-1.5872678.4281387-2.3045692z" fill="#41a38e"/><path d="m72.8471832 30.7622604c-3.1099091-.6361694-6.2666245-.2550983-9.2984161.971611-5.454052 2.206604-11.6434822 2.206604-17.0975342 0-3.0317307-1.2267094-6.188446-1.6077805-9.2984123-.971611-11.8975296 2.433693-18.5956478 18.8120842-14.9607525 36.5818177 3.6348267 17.7698593 16.2263165 30.2023773 28.1238461 27.7686768.3339958-.0682449.6637154-.1479263.9890976-.2386627 2.4294891-.6762695 4.9604874-.6762695 7.3899765 0 .3253822.0907364.6551018.1704178.9890976.2386627 11.8975258 2.4337006 24.4890175-9.9988174 28.1238441-27.7686768 3.6348953-17.7697335-3.0632172-34.1481247-14.9607468-36.5818177z" fill="#dd584d"/><path d="m79.8488541 85.3781128c-5.5583267 7.2603149-12.9910355 11.202774-20.1651611 9.7378006-.333931-.0753479-.6678619-.1508255-.9910088-.2369537-2.4236984-.6786423-4.9551582-.6786423-7.3896446 0-.3231468.0861282-.657074.1616058-.9910049.2369537-11.8922691 2.4344864-24.484745-10.007103-28.1149044-27.7701263-3.0054321-14.650032 1.0233536-28.3412056 9.1884861-34.0719872-4.6535149 6.9480209-6.4739857 17.6123314-4.1795444 28.8366776 3.6301613 17.7738075 16.2226353 30.2047386 28.1257534 27.7702599.333931-.0646973.6570778-.1508255.9910049-.2369537 2.4237022-.6786423 4.9550972-.6786423 7.3895798 0 .3231506.0861282.657074.1722565.9910049.2369537 5.1813354 1.0556334 10.5027084-.7002107 15.1454391-4.5026246z" fill="#cd5248"/><path d="m40.9628868 28.2239361-4.2919044 2.0493107 1.5406113 1.1890221-4.5355797 3.223526 1.899456.5535049-2.894928 3.9491501 1.3926773.4143562-2.3655624 3.5669098 1.533535.8846283-2.1030846 4.2830238 4.2830238-2.1030846.8846283 1.533535 3.5669098-2.3655586.4143562 1.3926735 3.9491501-2.894928.5535049 1.8994598 3.223526-4.5355835 1.1890221 1.5406113 2.0493126-4.2919044 1.04282.6115379.902298-4.7353783 1.0376587.9960098.8656731-4.1628532 1.0288925.9325218s.0244102-3.5156384-1.3805923-6.096117l1.4396744-1.4396858c.2383575-.9946308.5781479-1.966341 1.011364-2.9168701l-3.7821617 3.0254326c-2.5804787-1.4050026-6.0961189-1.3805943-6.0961189-1.3805943l.9325218 1.0288925-4.1628532.8656731.9960098 1.0376606-4.7353783.902298z" fill="#4abba4"/><path d="m53.9342613 25.3934631s-13.9932442 9.773056-18.9908295 18.9908257c.0000001 0 13.6600686-14.7706413 18.9908295-18.9908257z" fill="#41a38e"/></svg>