<svg enable-background="new 0 0 110 110" height="512" viewBox="0 0 110 110" width="512" xmlns="http://www.w3.org/2000/svg"><path d="m55.0013618 5.6493506h-12.2943496c-.8590279 0-1.5298424.7420697-1.4431534 1.5968285l1.3016167 12.8321705c.0750771.7402725.6986885 1.3043175 1.4431572 1.3043175h9.6911125c.7444649 0 1.3680763-.564045 1.4432297-1.3043175l1.3016167-12.8321705c.0866927-.8547587-.5841981-1.5968285-1.4432298-1.5968285z" fill="#bb9b45"/><path d="m53.3177719 5.6493506h-8.9271469c-.6237564 0-1.1108475.7420697-1.0479012 1.5968285l.9451294 12.8321705c.0545158.7402725.507328 1.3043175 1.0479012 1.3043175h7.0368881c.5405693 0 .9933853-.564045 1.0479546-1.3043175l.9451294-12.8321705c.0629463-.8547587-.4241982-1.5968285-1.0479546-1.5968285z" fill="#d6b24e"/><path d="m67.3264313 73.8352432c-.2823181 8.2742615-7.7215233 23.4351425-7.7215233 23.4351425v1.1412735c0 1.5344925-.982132 2.8969498-2.4429703 3.3758774-1.7677345.5772324-4.5175285 1.1292877-8.3107452.9944229-3.793293.1348648-6.543087-.4171906-8.3108215-.9944229-1.4608383-.4789276-2.4306107-1.8413849-2.4306107-3.3758774v-1.1412735s-7.4514904-15.160881-7.7215996-23.4351425c-.2700348-8.2616653 3.0567665-20.5867348 8.40905-29.3513107 3.7072754-6.0642319 2.5411224-22.526432 2.5411224-22.526432-2.3201637-2.4431953-2.0132675-4.5297413-1.31353-5.8802128.5401421-1.0309849 1.6449318-1.6573687 2.7988701-1.6573687h12.0549622c1.1662254 0 2.2710876.6263838 2.7989426 1.6573687.7119522 1.3504715 1.0066376 3.4370174-1.31353 5.8802128 0 0-1.1539383 16.4622002 2.5534096 22.526432 5.3522873 8.764576 8.6790085 21.0896454 8.4089737 29.3513107z" fill="#ededed"/><path d="m37.0978088 50.3137932c-3.5039291 7.6167068-5.7095318 16.7487221-5.4820557 23.48489.2578201 7.9056168 7.5128555 22.7715912 7.5865097 22.931633l.1228027.2331696c10.422245 2.491745 17.5545502.5029068 19.0522499.0119858l.1227303-.2451553c.0736504-.1600418 7.3286896-15.0140228 7.598793-22.931633.2175903-6.7361679-1.9898911-15.8681831-5.4941902-23.48489h-23.5068397z" fill="#feda6f"/><path d="m57.677578 16.0772877c-.5278549-1.0309849-1.6327171-1.6573687-2.7989426-1.6573687h-12.0549622c-1.1539383 0-2.258728.6263838-2.7988701 1.6573687-.6997375 1.3504715-1.0066338 3.4370174 1.31353 5.8802128h15.0257149c2.3201675-2.4431954 2.0254822-4.5297413 1.31353-5.8802128z" fill="#ededed"/><path d="m48.8464622 49.5974998c-6.506485 0-11.7486534.3050995-11.7486534.7162933 0 .4117966 5.2421684.7732391 11.7486534.7732391s11.7581863-.3614426 11.7581863-.7732391c.0000001-.4111938-5.2516975-.7162933-11.7581863-.7162933z" fill="#fed35b"/><path d="m43.9926796 101.7875366c.7733879.5035095 1.92733.9824371 3.4741058 1.0189972-2.0377693 0-3.5477562-.5035019-4.5543175-1.0189972-.9329796-.4789276-1.5467758-1.8413849-1.5467758-3.3758774v-1.1412735s-4.7385635-15.160881-4.9103699-23.4351425c-.1718788-8.2616653 1.9518318-20.5867348 5.3522835-29.3513107 2.3569565-6.0642319 1.6081429-22.526432 1.6081429-22.526432-1.4731255-2.4431953-1.2766685-4.5297413-.8347549-5.8802128.343689-1.0309849 1.0434227-1.6573687 1.7800255-1.6573687h.7856026c-.5769348 0-1.141655.6263838-1.4116859 1.6573687-.3560524 1.3504715-.5033569 3.4370174.6628723 5.8802128 0 0 .5892181 16.4622002-1.2766685 22.526432-2.7007179 8.764576-4.382515 21.0896454-4.2474976 29.3513107.1350174 8.2742615 3.8914452 23.4351425 3.8914452 23.4351425v1.1412735c-.0000002 1.5344925.4910696 2.8969498 1.2275923 3.3758774z" fill="#fff" opacity=".15"/><path d="m58.490612 73.8352432c-.1841698 8.2742615-4.9103661 23.4351425-4.9103661 23.4351425v1.1412735c0 1.5344925-.6260834 2.8969498-1.5590668 3.3758774-1.0066338.5154953-2.504261 1.0189972-4.5543938 1.0189972 1.5467796-.0365601 2.7007179-.5154877 3.4741058-1.0189972.7365265-.4789276 1.2398796-1.8413849 1.2398796-3.3758774v-1.1412735s3.7564278-15.160881 3.8914452-23.4351425c.1350174-8.2616653-1.5467758-20.5867348-4.2474937-29.3513107-1.8658867-6.0642319-1.2889557-22.526432-1.2889557-22.526432 1.1785164-2.4431953 1.031208-4.5297413.6629486-5.8802128-.2578239-1.0309849-.8225403-1.6573687-1.4117622-1.6573687h.785675c.7488136 0 1.4485512.6263838 1.7800255 1.6573687.4542007 1.3504715.638298 3.4370174-.8348274 5.8802128 0 0-.7365265 16.4622002 1.62043 22.526432 3.4004517 8.764576 5.5241624 21.0896454 5.352356 29.3513107z" fill="#fff" opacity=".15"/><ellipse cx="73.099" cy="93.826" fill="#293b44" rx="6.528" ry="7.561"/><ellipse cx="73.099" cy="88.312" fill="#19282f" rx="1.749" ry=".916"/><path d="m69.0380554 97.7686691c-2.3874664-3.6703949-.0266113-7.61129-.0027313-7.6505203l.2981339.1821518c-.0231934.037529-2.268074 3.7952423-.0027313 7.2780304z" fill="#ededed"/><ellipse cx="63.979" cy="96.789" fill="#344d5b" rx="6.528" ry="7.561"/><ellipse cx="63.979" cy="91.275" fill="#19282f" rx="1.749" ry=".916"/><path d="m59.9181404 100.7318497c-2.3874626-3.6703949-.0266075-7.6112976-.0027275-7.6505203l.2981339.1821518c-.0231972.0375214-2.268074 3.7952423-.0027313 7.2780228z" fill="#ededed"/><path d="m73.0984726 88.8287659c-.2503815 0-.4720993-.1807938-.5157623-.4359436-.0784607-.4584579-2.0487366-11.2458725-13.1305313-12.9640656-.2861977-.0443497-.4819984-.3121262-.4376526-.5979767.0446854-.2858582.314167-.4819946.5979767-.4376526 11.8390656 1.8358841 13.9829712 13.704628 14.0030975 13.8240204.048439.2851715-.1436081.5553284-.4284363.6041107-.0296783.004776-.0593567.0075074-.0886917.0075074z" fill="#41a38e"/><path d="m63.9784279 91.5685959c-.2531052 0-.4755135-.1835175-.5167885-.4413986-.0201263-.1258774-1.900692-12.6140823 6.7987595-17.2662048.2541275-.1367874.572731-.0409393.7088318.2148972.1367874.2551575.0402527.5723953-.2148972.7088394-8.0380287 4.2987289-6.2765121 16.0593414-6.2577515 16.1777039.045372.2858582-.1497498.5543137-.4352646.5996857-.0279693.0044325-.055603.0064772-.0828895.0064772z" fill="#4abba4"/><path d="m64.7055893 82.0206528s-4.3544731-1.304184-7.3685417 2.6093979c-1.7862816 2.3193741-1.8035583 3.5172806-2.2807312 6.0597 0 0 4.2436485.4399185 7.10569-2.1552963 1.4167213-1.2846451 2.2012672-3.5593033 2.5435829-6.5138016z" fill="#4abba4"/><path d="m64.7055893 82.0206528s-4.6614494 1.5541382-8.0614166 7.2955856c0 0 4.9900055-4.5621567 8.0614166-7.2955856z" fill="#41a38e"/><path d="m70.2233582 81.6214142s1.6409836-1.7899628 4.0948029-.8191681c1.4542465.5753326 1.789978 1.1202164 2.7046356 2.1561203 0 0-1.8266373 1.3631058-3.8499374.9555817-1.0015412-.2017212-1.9839555-1.0306626-2.9495011-2.2925339z" fill="#4abba4"/><path d="m70.2233582 81.6214142s2.5639954-.5625458 5.6950607 1.1412888c0-.0000001-3.5378723-.7276536-5.6950607-1.1412888z" fill="#41a38e"/></svg>