<svg enable-background="new 0 0 110 110" height="512" viewBox="0 0 110 110" width="512" xmlns="http://www.w3.org/2000/svg"><path d="m94.9767075 48.5660057c0-.0002441 0-.0004883 0-.0007324l-.7890625-7.140686-.6495361 1.9596558c-.6416016-1.6508179-1.4327393-3.2476196-2.3258057-4.7769165-3.0458984-5.2159424-7.8120117-9.9891987-13.8095703-10.7054462-5.1601562-.616272-10.1657715 1.8652954-14.546875 4.6605244-4.3811035 2.7952881-8.6513672 6.0428467-13.7036133 7.2605591-5.7875977 1.3949585-12.0109863-.036499-17.737793 1.5895996-5.4504395 1.5474854-9.8830566 5.8035278-12.4599609 10.8493042-1.6765137 3.282959-2.4958496 6.7287598-2.9727783 10.286499l-1.1737061-.8624878.8731689 7.8149376c.0167236.1651001.0357666.333374.0565186.5050049l.0178223.1608276.0028076.0032959c.8709717 6.8405151 5.1196289 18.4332886 21.5484619 19.3592529 8.3619385.4712524 16.8271484-.4359741 24.9458008-2.4918213 8.2636719-2.0924683 16.0905762-6.1248169 22.2648926-12.0023804 7.151123-6.8077393 12.0520019-16.7248498 10.4592285-26.4689904z" fill="#cd5248"/><path d="m94.1387634 41.1078148c-.5756836-3.5220947-1.9648438-6.8768311-3.7644043-9.9586811-3.0458984-5.2159424-7.8120117-9.9891968-13.8095703-10.7054443-5.1602783-.616272-10.1657715 1.8652954-14.546875 4.6605225-4.3811035 2.7952881-8.6514893 6.0428467-13.7036133 7.260561-5.7875977 1.3949585-12.0109863-.036499-17.7379131 1.5895996-5.4503174 1.5474854-9.8829346 5.8035278-12.4598389 10.8493042-2.2285166 4.3637695-2.9433603 9.0149536-3.3510752 13.8345947-.3591309 4.2459717 1.0544481 22.2689629 21.7033691 23.4327354 8.361866.4712753 16.8270264-.4359741 24.9458008-2.4918213 8.2636719-2.0924683 16.0905762-6.1248169 22.2647705-12.0023804 7.1512443-6.8077354 12.0521232-16.7248497 10.4593497-26.4689903z" fill="#dd584d"/><path d="m90.1917953 41.7536888c-.4501953-2.7519531-1.5507812-5.6416016-3.2714844-8.5869141-1.4072266-2.4111347-5.2802734-8.0888691-10.8300781-8.7509785-.3710938-.0439453-.7539062-.0664062-1.1367188-.0664062-3.8242188 0-7.7724609 2.2050781-10.7841797 4.1269531-.7333984.46875-1.4648438.9492188-2.1962891 1.4316406-3.8613281 2.5429707-7.8554688 5.1728535-12.7216797 6.345705-3.2294922.7783203-6.3925781.7978516-9.4501953.8164062-2.9208984.0185547-5.6796875.0351562-8.1318359.7314453-4.0175781 1.140625-7.7519531 4.4384766-9.9902344 8.8212891-1.9824219 3.8828125-2.5791016 8.2314453-2.9287109 12.3525391-.1767578 2.09375.2666016 8.5683556 4.3828125 13.3076134 3.0478516 3.5097656 7.6103516 5.4589844 13.5615234 5.7939453 1.3623047.0771484 2.7529297.1162109 4.1347656.1162109 6.4804688 0 13.0761719-.8378906 19.6035156-2.4921875 7.9404297-2.0097656 15.0253906-5.8212891 20.4882812-11.0214844 6.9482424-6.6142539 10.5009768-15.3994101 9.270508-22.9257773z" fill="#ededed"/><path d="m87.0636215 44.7459984c-.4482422-1.7055664-1.3244629-3.3885498-1.0678711-5.1333618.1481934-1.0075073.6733398-1.9733276.5633545-2.9857788-.2076416-1.9119873-2.4024658-2.8236084-3.6784668-4.2625122-.8349609-.9414692-1.2906494-2.1589375-2.0424805-3.1681538-.7518311-1.0091553-2.0206299-1.8375854-3.2203369-1.4575806-1.050293.3326416-1.6226807 1.4337769-2.0849609 2.4338379-1.1331787 2.45154-2.2775879 4.9387226-2.7341309 7.6006489-.1801758 1.0508423-.2565918 2.1399536-.6977539 3.1105347-.2988281.6572266-.7521973 1.2301025-1.2033691 1.7936401-2.5166016 3.1428833-5.1074219 6.2262573-7.7695312 9.2467651 1.7905273-2.1243896 3.1230469-4.5888672 4.4425049-7.0338745 1.1722412-2.1722412 2.3756104-4.4628296 2.3643799-6.9312134-.0068359-1.5241089-.4777832-3.0893555-.020752-4.543335.6192627-1.9704609 2.8356934-3.3470478 2.8232422-5.4124775-1.5771484-.9584961-3.6037598.0199585-5.0734863 1.1361084-2.994873 2.2744141-5.6914062 5.2811298-9.3630371 6.0942402-.7075195.1566772-1.4377441.2264404-2.1206055.4694824-1.7331543.6169434-2.9768066 2.2791138-4.7590332 2.7354736-1.3066406.3345337-2.6875-.0374756-4.0317383.0725708s-2.8531494 1.0748291-2.6931152 2.4140015c.0638428.5341797.3840332.9961548.645752 1.4662476.7712402 1.3860474 1.0802002 3.0244141.8664551 4.5961914-1.8115234-2.4882202-3.9768066-4.8314209-6.7615967-6.1418457s-6.2924805-1.4122314-8.796875.376709c-1.5863037 1.1331787-2.6485596 2.9040527-4.2923584 3.9523315-.7961426.5078125-1.7133789.8348389-2.4199219 1.4613647-.0532227.0470581-.4085693.4638062-.4085693.4638062-.4039307.5688477-.5900879 1.2885132-.3218994 1.8916626-.6887207 1.6599121-1.779541 3.2907104-2.2269287 5.0373535-.2634277 1.0284424-.2984619 2.0996704-.3311768 3.1607666-.0957031 3.102478-.1533203 6.348999 1.2220459 9.131588 1.0633545 2.151123 2.8846436 3.8141479 4.6645508 5.4234009 1.0526123.0089722 1.7642822-1.0228882 2.3455811-1.9005127s1.5065918-1.8180542 2.5157471-1.5183716c-2.0435791 1.0521851-2.3701172 3.8500977-1.9992676 6.1184082.1002197.6123657.277832 1.288208.8087158 1.6092529.3474121.210022.7753906.22052 1.1813965.2250366 2.9449463.0327759 5.8898926.0656128 8.8349609.0984497 1.836792.0204468 3.7089844.0360107 5.4631348-.5095215 1.7539062-.5454712 3.4024658-1.7544556 4-3.4914551.1918945-.5581055.2717285-1.1539917.5117188-1.6931763.7558594-1.6984253 2.9414062-2.5281982 3.4133301-4.326416-.2990723.9067383-.5980225 1.8134766-.8969727 2.7202148-.5645752 1.7119751-1.1352539 3.5321655-.7211914 5.2866211.0570068.2415161.1361084.4857178.2963867.6750488.3319092.3920898.9082031.4470825 1.421875.4484253 6.2780762.0163574 11.9777832-3.6015015 16.7709961-7.6560059.4243164-.3590088.8614502-.7454224 1.0546875-1.2666626.7131348-1.9242554-2.2675781-3.9269371-1.3317871-5.7533531 1.2578125.1845703 1.8505859 1.607605 2.3127441 2.7918091.4621582 1.1842003 1.3891602 2.5353355 2.6391602 2.3049278.5683594-.1047974 1.0172119-.5269775 1.4309082-.9303589 1.6878662-1.6456871 3.3757324-3.2914391 5.0635986-4.93713 1.4122314-1.3770142 2.8884277-2.8637695 3.3349609-4.7850952.1903076-.8187866.1790771-1.6702881.1328125-2.5096436-.0172119-.3135986-.0469971-.647644-.2401123-.8952637-.3225098-.413208-.9372559-.4090576-1.4597168-.3669434-2.510498.2023926-5.0209961.4048462-7.5314941.6072388 2.1369629-1.5283813 4.7548828-2.3736572 7.3820801-2.383606.8259277-.0031128 1.6918945.0662842 2.4388428-.286377 1.5947263-.7529292 1.8031003-2.9685664 1.354614-4.6741328z" fill="#de594e"/><path d="m51.4837875 56.2558861c-1.4111328.2324829-2.8494873.2210083-4.279541.2088623-3.4494629-.0292358-6.8988037-.0584106-10.3481445-.0876465-.498291-.0042725-1.0053711-.0098267-1.4797363-.1621704-.9501953-.3050537-1.619873-1.1428833-2.1716309-1.9744263-.7106934-1.0708618-1.3256836-2.2050781-1.8356934-3.3847656l.6638184 1.7987671c-.4785156-1.4828491-1.2333984-2.8760376-2.2144775-4.0865479.3304443 2.2781372 1.067749 4.4967041 2.166748 6.5194092.2225342.409668.4661865.8322754.4837646 1.2982178.0184326.4915771-.2178955.9537964-.4645996 1.3795166-.8681641 1.4987793-1.9412842 2.8713989-2.8054199 4.3725586-.8642578 1.5011597-1.5251465 3.1857872-1.453125 4.9164391.7646484-.998291 1.529541-1.9966431 2.2944336-2.9949341.9372559-1.2235069 1.8955078-2.4673424 3.1604004-3.3481407 1.8122559-1.262207 4.0789795-1.6602173 6.2768555-1.8782349 1.8022461-.178833 3.6132812-.2585449 5.4160156-.4324951 2.3056641-.2224121 4.5935059-.5985107 6.8791504-.9743042 1.7930908-.2948608 3.6480713-.6134644 5.1572266-1.6257324 1.2556152-.8422241 2.1942139-2.145874 2.5944824-3.6038818-2.3049317 1.982788-5.0405274 3.5652465-8.0405274 4.0595092z" fill="#ededed"/></svg>