<svg enable-background="new 0 0 110 110" height="512" viewBox="0 0 110 110" width="512" xmlns="http://www.w3.org/2000/svg"><path d="m38.5895081 61.2025566s-21.7453213 17.8448143-23.8906002 24.6707039l3.2629738 2.482872s3.0845547-11.13414 18.0411129-22.4892807c3.3724899-2.5604248-.3509255-2.2880402 2.5865135-4.6642952z" fill="#dbd8dd"/><path d="m45.021122 71.5886307s-17.8448162 21.7453232-24.670702 23.8906021l-2.4828739-3.2629776s11.1341381-3.0845566 22.4892845-18.0411148c2.5604248-3.3724899 2.2880402.3509292 4.6642914-2.5865097z" fill="#dbd8dd"/><path d="m42.952198 85.0155411c2.2207603.2802277 4.3827972-.6760254 6.4912262-1.4275742 1.5125542-.5391464 3.1018105-.9864655 4.7026253-.8603668 1.8312798.1442413 3.5413666 1.0282364 5.3716049 1.1851807 1.8302345.1569443 4.040329-.8631134 4.118412-2.69841.0126343-.2969284-.0325813-.599205.0337868-.8889008.1530609-.6680756.8684769-1.077179 1.5517349-1.1310883.6832657-.0539017 1.3546982.1605377 2.0224228.3151245 4.483017 1.0378723 9.501915-.8332138 12.2114182-4.5525208.6820831-.9362869 1.3562317-2.0660782 2.4927902-2.2899246.5761414-.1134644 1.1689606.038002 1.730423.2099838 1.5945206.4883957 3.1995697 1.1605225 4.8615189 1.0228806 2.9360123-.2431564 5.0334625-2.8615265 6.6794739-5.304863.5713425-.8480988 1.1459885-1.7318115 1.3373718-2.7363358.1913757-1.0045242-.0922012-2.1691589-.9430618-2.7363701-.9511719-.6340752-2.2075806-.3406219-3.3414078-.1949883-1.9103012.2453651-4.1722183-.1996765-5.0876541-1.8942108-.2110596-.3906898-.3346329-.863205-.178772-1.279007.2615051-.6976585 1.1199722-.9014702 1.8049622-1.1945534 2.2576675-.9659653 3.24366-3.5676193 3.9979553-5.9045372.1316833-.4079742.265007-.8356094.192955-1.258213-.1765976-1.0358467-1.4738922-1.4834709-2.5123444-1.3229294-1.0384598.1605415-1.9938812.7069016-3.0391541.814476-2.2947311.2361641-4.2130966-1.6260796-5.7327805-3.3616295-.1996231-.2279854-.409668-.4832611-.4162369-.7862244-.0139771-.6449661.802124-.9084549 1.2788467-1.3430901.7383575-.6731567.6375198-1.92696.0529022-2.7372208-.5846252-.8102608-1.5158844-1.2839088-2.4110718-1.7276993 2.4978104-1.369854 4.4346619-4.4709129 4.934082-7.2755737.4994278-2.8046608-.3351746-5.8173542-2.2065887-7.965229-1.2460556-1.4301376-3.5828552-2.4368286-4.9485321-1.1204395-.9727402-.4842911.0282898-1.9811096-.2084961-3.041626-.0708847-.3174801-.2622604-.5929337-.4543915-.8554306-.933197-1.2749882-1.984581-2.4634323-3.1362686-3.5451241-.6506195-.6110764-1.4242249-1.222312-2.3163834-1.194396-.8221893.0257263-1.5164566.5878859-2.1419373 1.1221514-1.2132797 1.0363445-2.4265594 2.0726891-3.6398315 3.1090336-.4728317.4038773-.9753952.8224907-1.5862122.939043-.6108208.1165524-1.3508263-.1958466-1.4769592-.8047581-.1439209-.6947765.5149422-1.2571487.9220314-1.838274 1.0946693-1.5626526.270092-3.9521952-1.3951721-4.8833675-1.6652603-.9311724-3.8183403-.6028004-5.4425278.3982916-1.6241913 1.001092-2.8076363 2.5747213-3.8307686 4.1851187-1.1941566 1.8795834-2.2392387 3.8993835-2.6480865 6.0883751-.126915.6795177-.1989365 1.392086-.5527534 1.9859428-.9624329 1.6153698-3.2927513 1.494936-5.0342674 2.2040272-2.1636086.8809528-3.4302216 3.118433-4.3047714 5.2846355-.7595024 1.8812294-1.3512306 3.8301582-1.7658691 5.8160973-.2484169 1.1898079-.479248 2.4811821-1.3615532 3.3171768-.5848999.5541992-1.3744316.8232994-2.1194572 1.1301918-1.2068405.4971237-2.3878784 1.1560364-3.2093697 2.170311-1.4679394 1.8124161-1.5150681 4.371357-1.283205 6.6921196.3569603 3.5729065 1.2085247 7.1568947.7265549 10.7150955-.3245144 2.395771-1.1774368 5.0995522.2715244 7.0348854.4168625.5567932.9926262.9832001 1.3842812 1.5579987.6498947.9537811.7104225 2.177002 1.0694351 3.2738953.7165146 2.1891708 2.5769577 3.7743607 4.3536949 5.2403183 1.8391152 1.5174257 2.2927361 2.8250963 4.1318512 4.3425219z" fill="#41a38e"/><g fill="#4abba4"><path d="m64.3063507 58.4824791c2.6637878-1.5527306 5.7733154-2.5180283 8.8317795-2.1274414 2.1955872.2803879 4.4370651 1.2388306 6.54245.5557785 2.2459793-.7286606 3.5910416-3.4845695 2.7836609-5.7034683-.7277679-2.0000954-2.7785339-3.2008362-4.7969513-3.876133-3.8056717-1.2732506-8.2354889-1.1798401-11.5821838 1.0346336-1.7224731 1.1397438-3.062706 2.7583237-4.376091 4.3523788-1.421032 1.7247162-10.8470802 11.3174706-9.4021492 12.9831505 1.4623566 1.6857681 4.1309013-.8223953 5.0806007-1.7024498 2.1665115-2.007637 4.3535995-4.0211372 6.9188842-5.5164489z"/><path d="m65.8343811 70.1457596c.7802353-.4317245 1.4279175-1.063736 2.1509018-1.5857086 2.871727-2.0733261 6.648262-2.2581329 10.1885757-2.3662872 1.2991104-.0396881 2.6548996-.0682068 3.829567.4880371 2.7060699 1.281395 3.1362991 5.3263931 1.3698807 7.7439423s-4.9588013 3.3839493-7.9524536 3.4369965c-2.9932327.0530319-5.947113-.6455536-8.9341125-.8457108-3.4501915-.2311935-6.9426613.2187119-10.2265663 1.2995377-1.2017784.3955383-3.5272903 2.0571594-4.7371712 1.9144363-1.2985306-.1531754-1.7626038-1.819725-1.2160683-2.9365387.4463425-.9120636 1.5429459-1.2226639 2.3732414-1.6638489 1.4050598-.746582 2.4080429-1.6942444 3.6599998-2.6499557 2.9364929-2.241623 6.4581681-1.155243 9.4942055-2.8349z"/><path d="m50.6973381 46.2063828c4.9011002-6.0757065 6.0169029-14.9673977 2.7689896-22.0657101-.1338043-.2924232-.2891388-.5984592-.5662804-.7615776-.2219276-.130621-.4908257-.1498756-.748333-.1486988-2.7704964.0126686-5.2119484 2.0448437-6.5193977 4.4874592s-1.6966171 5.2562313-2.064579 8.0022068c-.2813644 2.0997391-.5627289 4.1994743-.8440971 6.2992096-.1853638 1.3833313-.3766365 2.7881622-.9407883 4.0647583-1.4375801 3.2530251-5.0236092 5.127861-6.5737572 8.3287125-.7891464 1.6294899 1.1809311 2.029583 2.3156242 1.4635429 1.230381-.6137772 2.3300476-1.7378578 3.6553802-2.3988838 3.5928155-1.7919579 6.978634-4.1240655 9.5172387-7.271019z"/></g><path d="m75.0601959 75.2902832c-5.98246-.0848541-12.1256142-.137558-17.7365799 1.9511642-1.4421539.5353317-2.8405685 1.2141113-4.3441086 1.5357895-1.2725334.2778625-2.5919533.292572-3.8498459.6319275-4.1569901 1.1321259-6.6552391 5.4850922-10.5956459 7.2197495-1.1175156.4914398-2.3286972.7606583-3.4314995 1.2842407-2.600666 1.2374725-4.2974377 3.7182236-6.7751904 5.1311646-2.0946178 1.1935806-4.5139122 1.2959976-6.585104 2.5772781-.8190498.5030899-1.5680351.9771042-2.3666592 1.2023621-.7927647.2311172-1.6235275.2194061-2.620985-.2341156-1.4510489-.6611404-2.0859041-2.0213394-2.0039854-3.413826.0117846-.2984619.0613861-.599678.1433411-.8922501.1433048-.52948.3860989-1.0414581.7254887-1.503685.0702057-.0994873.1463041-.1930847.2281523-.2866516.6026802-.7080231 1.3896275-1.2492142 2.2467422-1.638237.4007759-.1843033.8190136-.3334274 1.2432518-.4534149.7401295-.2077637 1.5065422-.3363876 2.1911774-.681633.7546997-.3803177 1.3572731-1.0004578 1.971632-1.5796814 4.0604992-3.8323059 9.2443008-6.2662125 13.5182381-9.8556519.2106934-.1755524.4182739-.3539276.620182-.5382614l.0145683-.0145721c1.4129448-1.2433243 2.7264023-2.6035614 4.0253601-3.9668655 5.9618912-6.2661438 17.2626343-9.8848343 22.7770767-16.5518608-.4563789 2.199894-10.3062172 9.054142-11.5056496 10.9497871-1.2373581 1.9628448-16.6805229 13.0237961-25.272253 19.7960205-.3716011.2954636-.7430592.5850754-1.1205158.8746872-.5675049.444664-1.1379414.8863983-1.7113037 1.3252029-1.5942822 1.2256851-3.2003479 2.4455795-4.8064499 3.6597214.807478 1.5093994 3.1009312 1.2402878 4.5664768.3481064 1.8109722-1.1029816 3.1916351-2.7645416 4.7245312-4.233017 6.1784363-5.9210358 14.6883926-8.6095123 22.8764915-11.116478 1.7376213-.532402 3.4783516-1.0619888 5.2188683-1.5972061 3.89077-1.1877975 7.9278069-2.393013 11.9589882-1.8605728 1.9922028.2661057 3.9199067.9536743 5.6752091 1.9307785z" fill="#ededed"/><path d="m32.4478531 56.500679s-18.720089 19.9673004-18.5729713 26.3335266l10.3910083-12.0622406s13.6731815-17.4219856 16.0137043-24.8036232z" fill="#ededed"/><path d="m66.5103912 45.1280861c1.9128494-1.8084373 12.2508469-10.7590904 6.3302383-13.3540802-2.0518036-.8993607-5.8196564 1.1444054-7.5795975 2.0473022-2.7993965 1.4361229-5.3232498 3.5117416-6.7057343 6.3947678-.7719841 1.609745-1.1508675 3.3740425-1.6987343 5.0730629-2.4131165 7.4837532-7.9680176 13.4129677-13.6362991 18.9385529-1.1559753 1.1268997-.1692657 3.116066 1.4163399 2.8124619.0117111-.0022888.0234261-.00457.0350685-.0069275 1.1683655-.2369003 2.1725349-.9622498 3.1004295-1.7107315 7.1569673-5.7732697 12.0562631-13.8773461 18.738289-20.1944085z" fill="#4abba4"/><path d="m28.9298992 84.6250687c-1.626564 1.58564-3.2851238 3.1915665-5.2919655 4.2680817-1.6820583.9039383-3.5368099 1.3954849-5.4354496 1.6734543-.2602921.0379562-.5206547.070137-.778162.0994568-1.6820574.1960068-3.2998009-.8366547-3.7298231-2.4719696-.140377-.526619-.2311163-1.061882-.2719688-1.606102-.0965605-1.0853043-.0029993-2.19104.2896099-3.2442703.9243221-3.2997665 3.5572367-5.7922668 6.0379171-8.1558914 5.9122162-5.6430359 11.5639629-11.5639648 16.9263153-17.7337227 1.8722115-2.153038 3.7122879-4.3442192 5.2246513-6.7634048 2.287632-3.6625443 3.7883873-7.8137131 4.3646431-12.0934753.2662201-1.9629517.3334961-5.3944168 2.3140564-6.4563675.3071785 1.8810005-1.2520714 4.0370369-1.5153618 5.920929-.1404495 1.0005646-.1052742 2.0184822-.166729 3.0277634-.2808609 4.3120422-2.422226 8.3139763-5.1077042 11.701519-2.6856194 3.3876839-5.9269295 6.2896729-8.8756981 9.4490623-1.731802 1.854641-3.3641167 3.7970619-4.9936447 5.7425575-3.8439159 4.5811157-7.6819057 9.1621628-11.5229664 13.7404251.8220119 1.4188004 2.0624065 3.0745773 3.9287643 2.0389862.2574711-.1404877.4856586-.3276825.6992054-.5295105 3.7707825-3.5426712 8.0007992-6.5966797 12.5586357-9.054039 1.5592499-.8396225 3.162281-1.6177444 4.625042-2.6241302 1.4918289-1.0295944 2.8142128-2.2817764 4.1276703-3.5308838 6.3656311-6.0438042 15.9286423-17.730648 22.2972336-23.7774925-9.6975669 12.5644567-24.3216437 29.318218-35.7042712 40.3790243z" fill="#ededed"/><path d="m70.2950592 27.3555107c2.1480789-1.4732227 4.3186874-3.2073116 4.8809814-5.7155247.4809418-2.1453266-.4731979-4.5398731-2.2979202-5.7663755-2.0411224-1.3723431-4.8719711-1.1986847-7.0000153.0346031s-3.6119118 3.3718634-4.5194855 5.6579237-1.2969933 4.7386017-1.6883049 7.1669674c-.4047394 2.5120697-.8226204 5.0407104-1.702877 7.4280777-1.1488686 3.1160736-3.0487251 5.8936844-5.0203552 8.5663795 3.3453293-4.2895126 6.9281349-8.3935432 10.7266998-12.2872391 1.9526368-2.0014857 4.0841065-4.0138263 6.6212769-5.0848121z" fill="#4abba4"/><g fill="#b1b2b6"><path d="m19.3755627 96.8239594c-.7927647.2311172-1.6235275.2194061-2.620985-.2341156-1.4510489-.6611404-2.0859041-2.0213394-2.0039854-3.413826 1.22861-.6143188 2.8989897-.0906677 3.8906984 1.2812881.5383663.7371979.7811241 1.5884552.734272 2.3666535z"/><path d="m18.2024841 90.5666046c-.2602921.0379562-.5206547.070137-.778162.0994568-1.6820574.1960068-3.2998009-.8366547-3.7298231-2.4719696-.140377-.526619-.2311163-1.061882-.2719688-1.606102.9974575-.4358063 2.3198061-.2544708 3.3904696.5587921 1.1701507.889328 1.6879501 2.2730255 1.3894843 3.4198227z"/></g></svg>